<svg width="41" height="41" viewBox="0 0 41 41" fill="none" xmlns="http://www.w3.org/2000/svg">
<path d="M12.8125 14.2473H25.4542C26.9746 14.2473 28.1875 15.4773 28.1875 16.9806V20.0044" stroke="#444761" stroke-width="2.5625" stroke-miterlimit="10" stroke-linecap="round" stroke-linejoin="round"/>
<path d="M15.6996 11.3774L12.8125 14.2475L15.6996 17.1346" stroke="#444761" stroke-width="2.5625" stroke-miterlimit="10" stroke-linecap="round" stroke-linejoin="round"/>
<path d="M28.1875 26.7527H15.5458C14.0254 26.7527 12.8125 25.5227 12.8125 24.0194V20.9956" stroke="#444761" stroke-width="2.5625" stroke-miterlimit="10" stroke-linecap="round" stroke-linejoin="round"/>
<path d="M25.3004 29.6227L28.1875 26.7526L25.3004 23.8655" stroke="#444761" stroke-width="2.5625" stroke-miterlimit="10" stroke-linecap="round" stroke-linejoin="round"/>
<path d="M20.5 37.5834C29.9348 37.5834 37.5833 29.9349 37.5833 20.5001C37.5833 11.0652 29.9348 3.41675 20.5 3.41675C11.0651 3.41675 3.41663 11.0652 3.41663 20.5001C3.41663 29.9349 11.0651 37.5834 20.5 37.5834Z" stroke="#444761" stroke-width="2.5625" stroke-miterlimit="10" stroke-linecap="round" stroke-linejoin="round"/>
</svg>
